<?xml version="1.0" standalone="no"?>
<!DOCTYPE svg PUBLIC "-//W3C//DTD SVG 20010904//EN"
 "http://www.w3.org/TR/2001/REC-SVG-20010904/DTD/svg10.dtd">
<svg version="1.0" xmlns="http://www.w3.org/2000/svg"
 width="1254.000000pt" height="1254.000000pt" viewBox="0 0 1254.000000 1254.000000"
 preserveAspectRatio="xMidYMid meet">

<g transform="translate(0.000000,1254.000000) scale(0.100000,-0.100000)"
fill="#000000" stroke="none">
<path d="M6150 10857 c-36 -12 -77 -31 -92 -42 -42 -32 -428 -344 -488 -395
-30 -25 -149 -122 -265 -215 -368 -296 -468 -377 -536 -434 -36 -31 -132 -110
-214 -176 -148 -120 -489 -403 -765 -635 -214 -180 -397 -333 -655 -545 -991
-815 -1043 -859 -1077 -921 -91 -168 -35 -366 127 -452 44 -23 62 -27 145 -27
87 0 101 3 158 31 l62 30 3 -1985 3 -1986 21 -77 c103 -363 346 -611 692 -706
l96 -27 820 0 c651 0 832 3 880 13 206 47 378 170 456 327 62 126 59 43 59
1524 l0 1354 -47 55 c-27 31 -117 130 -200 221 -147 158 -153 166 -153 207 l0
41 -50 7 c-120 16 -230 101 -271 209 -73 192 34 390 239 442 79 20 139 14 220
-25 117 -55 182 -152 190 -280 6 -109 -21 -175 -104 -258 -35 -35 -64 -72 -64
-82 0 -11 42 -66 94 -122 51 -57 146 -161 210 -231 l116 -128 2 -1165 3 -1165
83 41 c107 54 212 156 259 251 68 139 64 -42 63 2339 0 1839 -2 2162 -14 2201
-57 184 -184 298 -390 349 -117 29 -298 25 -421 -9 -269 -74 -468 -248 -548
-480 -26 -73 -30 -102 -31 -191 -1 -121 16 -195 69 -309 19 -40 35 -75 35 -77
0 -2 -19 -4 -42 -4 -127 -1 -324 -69 -455 -158 -159 -108 -285 -288 -350 -499
-25 -81 -27 -102 -27 -258 0 -156 2 -177 27 -258 30 -97 76 -194 131 -276 38
-56 43 -71 24 -71 -7 0 -54 -20 -105 -45 -194 -95 -341 -294 -413 -560 -28
-102 -38 -335 -20 -456 22 -155 93 -342 184 -484 122 -190 333 -358 561 -447
153 -60 227 -73 425 -73 96 0 183 3 193 7 16 7 17 30 17 287 l0 279 -36 43
c-20 24 -67 76 -105 117 l-69 74 -55 -12 c-102 -21 -216 14 -292 89 -71 69
-96 127 -101 228 -4 75 -1 88 26 145 37 80 90 133 171 171 53 25 76 30 135 30
138 -1 241 -65 302 -187 35 -73 36 -78 32 -164 -3 -78 -8 -94 -36 -140 -18
-29 -32 -57 -32 -63 0 -5 52 -66 115 -134 l115 -124 0 -623 c0 -666 0 -670
-50 -768 -25 -48 -92 -112 -148 -141 l-47 -24 -739 -3 c-643 -2 -747 0 -800
13 -151 39 -271 177 -296 342 -7 46 -10 764 -8 2213 l3 2145 166 135 c195 159
724 593 1064 873 697 576 868 716 1165 957 80 65 199 161 265 215 266 217 503
405 509 405 7 0 228 -175 441 -349 44 -36 172 -140 285 -230 251 -202 378
-306 756 -617 403 -334 810 -668 1153 -947 35 -29 148 -123 252 -209 104 -86
212 -174 239 -195 l49 -38 0 -2155 c1 -2351 4 -2232 -56 -2342 -42 -77 -112
-144 -190 -181 l-68 -32 -760 0 c-760 0 -760 0 -807 22 -66 30 -143 105 -175
172 l-28 56 -3 655 -2 655 91 100 c51 55 103 112 116 126 l24 27 -33 58 c-31
56 -33 64 -33 159 0 86 3 107 25 150 83 168 288 237 457 153 63 -31 137 -115
163 -186 47 -123 9 -265 -95 -361 -83 -75 -170 -97 -322 -79 -16 2 -46 -24
-122 -107 l-100 -110 -1 -287 0 -287 46 -7 c84 -12 352 3 435 25 228 60 421
173 585 343 145 149 233 313 296 548 19 72 22 111 23 260 0 113 -5 195 -13
230 -36 149 -89 272 -162 380 -79 116 -235 238 -347 271 -24 7 -43 14 -43 16
0 2 11 19 24 36 149 195 217 484 171 724 -58 308 -226 533 -498 667 -106 52
-179 73 -289 82 -43 4 -78 11 -78 16 0 5 15 39 34 77 94 185 96 376 8 563 -92
198 -279 344 -522 409 -112 31 -340 34 -440 6 -191 -52 -330 -186 -371 -357
-17 -74 -17 -4317 1 -4395 35 -158 160 -312 310 -385 l85 -41 5 1169 5 1168
80 91 c44 50 135 152 203 226 100 111 122 142 122 167 0 16 -5 30 -10 30 -6 0
-33 22 -59 48 -138 138 -121 385 35 495 68 48 130 69 204 70 110 1 201 -42
270 -129 50 -63 69 -117 69 -204 1 -63 -4 -85 -28 -135 -50 -105 -156 -181
-266 -192 l-55 -6 0 -41 c-1 -45 20 -19 -278 -350 l-122 -136 2 -1362 3 -1363
26 -71 c71 -193 233 -332 464 -397 80 -22 83 -22 895 -22 750 0 821 1 890 18
251 60 449 195 589 400 53 78 120 229 143 324 l22 88 3 1978 3 1978 28 -19
c69 -49 207 -67 290 -38 92 33 165 105 198 198 33 91 13 226 -44 301 -29 38
-149 141 -604 521 l-298 248 0 769 0 769 -36 40 c-23 25 -51 44 -76 51 -26 7
-178 9 -441 7 -383 -3 -404 -4 -437 -23 -69 -41 -69 -44 -70 -397 -1 -174 -4
-319 -7 -321 -3 -3 -60 40 -126 96 -67 55 -153 127 -192 158 -38 32 -113 93
-165 136 -162 135 -307 253 -525 428 -115 93 -268 217 -340 275 -251 206 -649
522 -685 545 -90 57 -212 69 -320 32z"/>
<path d="M5114 6496 c-47 -21 -78 -71 -78 -125 0 -79 56 -131 139 -131 104 0
169 110 115 197 -37 61 -114 87 -176 59z"/>
<path d="M7312 6490 c-126 -77 -75 -250 74 -250 51 0 91 27 116 78 18 38 19
49 9 82 -16 54 -46 88 -89 100 -53 14 -73 13 -110 -10z"/>
<path d="M4659 5021 c-69 -22 -99 -61 -99 -132 0 -111 121 -176 212 -114 89
60 72 198 -29 241 -36 15 -46 16 -84 5z"/>
<path d="M7793 5011 c-99 -45 -99 -197 0 -244 97 -46 197 18 197 126 0 53 -34
101 -87 123 -43 18 -60 17 -110 -5z"/>
</g>
</svg>
